# xmcd
#
# Track frame offsets: 
#        150
#        12186
#        29030
#        41979
#        55114
#        67811
#        79606
#        95792
#        109005
#        123476
#        134455
#        149008
#        163869
#        178532
#
# Disc length: 2560 seconds
#
# Revision: 0
# Processed by: cddbd v1.5.2PL0 Copyright (c) Steve Scherf et al.
# Submitted via: ExactAudioCopyFreeDBPlugin 1.0
#
DISCID=c909fe0e
DTITLE=Russell Moore and IIIrd Tyme Out - Prime Tyme
DYEAR=2011
DGENRE=Bluegrass
TTITLE0=Old Kentucky Farmers 
TTITLE1=Goodbye Old Missoula
TTITLE2=Pretty Little Girl From Galax
TTITLE3=If Your Heart Should Ever Roll This Way Again
TTITLE4=Moon Magic
TTITLE5=Gonna Lay Down My Old Guitar
TTITLE6=Whippoorwill
TTITLE7=Dusty
TTITLE8=Hooverville
TTITLE9=Big Muddy
TTITLE10=Carroll County Blues
TTITLE11=Little Magnolia
TTITLE12=Sugarfoot Rag
TTITLE13=What's The World Coming To 
EXTD=
EXTT0=
EXTT1=
EXTT2=
EXTT3=
EXTT4=
EXTT5=
EXTT6=
EXTT7=
EXTT8=
EXTT9=
EXTT10=
EXTT11=
EXTT12=
EXTT13=
PLAYORDER=
